# xmcd CD database file
#
# Track frame offsets:
#	150
#	23887
#	44262
#	68012
#
# Disc length: 1175 seconds
#
# Revision: 0
# Processed by: cddbd v1.5.1PL2 Copyright (c) Steve Scherf et al.
# Submitted via: CDex 1.51
#
DISCID=2b049504
DTITLE=谷村新司 - 階−きざはし−
DYEAR=1900
DGENRE=JPop
TTITLE0=階−きざはし−
TTITLE1=バサラ
TTITLE2=階−きざはし−（オリジナル・カラオケ）
TTITLE3=バサラ（オリジナル・カラオケ）
EXTD=
EXTT0=
EXTT1=
EXTT2=
EXTT3=
PLAYORDER=
